# xmcd
#
# Track frame offsets: 
#        150
#        12634
#        26169
#        37702
#        50495
#        65972
#        86735
#        100982
#        112737
#        130425
#        143242
#        158300
#        172012
#
# Disc length: 2413 seconds
#
# Revision: 0
# Processed by: cddbd v1.5.2PL0 Copyright (c) Steve Scherf et al.
# Submitted via: ExactAudioCopy v0.99pb5
#
DISCID=ae096b0d
DTITLE=De Wismarer Treckfiedelmusikanten - De Wismarer Treckfiedelmusi
DTITLE=kanten
DYEAR=1996
DGENRE=Folklore
TTITLE0=Heut geht es an Bord
TTITLE1=Mecklenburger Heimatlied
TTITLE2=Rosamunde
TTITLE3=Drauﬂen am alten Brunnen
TTITLE4=Hohe Tannen
TTITLE5=Nimm uns mit Kapit‰n auf die Reise
TTITLE6=Ostsee - Wellen
TTITLE7=So viel Wind und keine Segel
TTITLE8=Am Golf von Biskaya
TTITLE9=Lapaloma - Alo ahe
TTITLE10=Lustig ist das Zigeunerleben
TTITLE11=Hamburger - Vermaster
TTITLE12=Ein armer Fischer bin ich zwar
EXTD=
EXTT0=
EXTT1=
EXTT2=
EXTT3=
EXTT4=
EXTT5=
EXTT6=
EXTT7=
EXTT8=
EXTT9=
EXTT10=
EXTT11=
EXTT12=
PLAYORDER=
